<svg width="1182" height="722" viewBox="0 0 1182 722" fill="none" xmlns="http://www.w3.org/2000/svg">
<rect x="1.5" y="2" width="1180" height="720" fill="black"/>
<path d="M986 5.5L881.5 102.5L1055.66 242M1071.5 557.5L870 627L686 440L1102 403.5L833 365.137M824.783 340.5L900.5 248.5L1048 263.487" stroke="#F143E2"/>
<path d="M658.833 141L630.5 56L878 102L769 237.5L594.5 284.5L648.991 198.5" stroke="#F143E2"/>
<path d="M609 60.5L521.5 172L569 320L663 443L636 627.5L526.228 514M88 635.5L217 452.5L249 490.5L325 580.5M482 515.047L376.5 635.5L337.5 595" stroke="#F143E2"/>
<path opacity="0.3" d="M552.5 318.5L436.5 379.364M218 445.5L346 414.335" stroke="#F143E2"/>
<path d="M511.5 177.5L393.5 108.5L75 88L139.331 138M560 318L427 247L277 292L206.582 204.5" stroke="#F143E2"/>
<path d="M150 201L48 320L87 638.5L1 676" stroke="#F143E2"/>
<path opacity="0.3" d="M109.5 5.5L80.5 92L3 13.5" stroke="#F143E2"/>
<path opacity="0.3" d="M387.5 111L330.5 1" stroke="#F143E2"/>
<path d="M867.5 585L808.796 394M634 330L768.5 354.938" stroke="#F143E2" stroke-opacity="0.2"/>
<path d="M509 458L540.5 383.5" stroke="#F143E2" stroke-opacity="0.2"/>
<path d="M412 213L402 152.5" stroke="#F143E2" stroke-opacity="0.2"/>
<path d="M282.5 311L262 354M255 372.5L223 425.5" stroke="#F143E2" stroke-opacity="0.2"/>
<rect x="323.825" y="594.323" width="14.031" height="14.031" transform="rotate(-86.0459 323.825 594.323)" stroke="#F143E2" stroke-width="0.610042"/>
<rect x="249.261" y="359.389" width="14.031" height="14.031" transform="rotate(-23.6568 249.261 359.389)" stroke="#F143E2" stroke-width="0.610042"/>
<circle cx="562.5" cy="315" r="72" fill="url(#paint0_linear_276_12430)"/>
<circle cx="562" cy="314.5" r="57" stroke="white" stroke-opacity="0.4"/>
<path d="M523.667 309.1H525.95L530 318.433H530.067L534.1 309.1H536.383V321H534.433V312.8H534.367L530.867 321H529.183L525.683 312.8H525.617V321H523.667V309.1ZM542.555 312.15C543.855 312.15 544.905 312.567 545.705 313.433C546.489 314.283 546.889 315.367 546.889 316.7C546.889 318.017 546.489 319.1 545.722 319.933C544.922 320.8 543.855 321.233 542.555 321.233C541.239 321.233 540.189 320.8 539.389 319.933C538.605 319.1 538.222 318.017 538.222 316.7C538.222 315.367 538.605 314.283 539.405 313.433C540.189 312.567 541.239 312.15 542.555 312.15ZM542.555 313.7C541.755 313.7 541.155 314 540.722 314.633C540.355 315.167 540.172 315.867 540.172 316.7C540.172 317.533 540.355 318.217 540.722 318.75C541.155 319.367 541.755 319.683 542.555 319.683C543.339 319.683 543.955 319.367 544.389 318.75C544.755 318.2 544.955 317.517 544.955 316.7C544.955 315.867 544.755 315.167 544.389 314.633C543.955 314 543.339 313.7 542.555 313.7ZM547.632 312.383H549.699L551.765 318.633L553.832 312.383H555.899L552.715 321H550.815L547.632 312.383ZM560.646 312.15C562.063 312.15 563.146 312.617 563.896 313.583C564.58 314.45 564.93 315.667 564.93 317.217H558.48C558.546 318.017 558.763 318.633 559.13 319.05C559.496 319.467 560.03 319.683 560.713 319.683C561.296 319.683 561.763 319.55 562.13 319.283C562.413 319.067 562.663 318.717 562.896 318.233H564.796C564.596 319.033 564.196 319.717 563.596 320.25C562.83 320.9 561.88 321.233 560.73 321.233C559.446 321.233 558.43 320.833 557.68 320.05C556.88 319.233 556.48 318.117 556.48 316.683C556.48 315.4 556.846 314.333 557.613 313.467C558.346 312.583 559.363 312.15 560.646 312.15ZM560.696 313.7C560.063 313.7 559.58 313.867 559.213 314.233C558.863 314.583 558.63 315.1 558.513 315.783H562.946C562.78 314.383 562.03 313.7 560.696 313.7ZM566.603 309.1H574.72V310.767H568.553V314.067H574.37V315.733H568.553V321H566.603V309.1ZM576.303 308.867H578.203V321H576.303V308.867ZM584.368 312.15C585.668 312.15 586.718 312.567 587.518 313.433C588.302 314.283 588.702 315.367 588.702 316.7C588.702 318.017 588.302 319.1 587.535 319.933C586.735 320.8 585.668 321.233 584.368 321.233C583.052 321.233 582.002 320.8 581.202 319.933C580.418 319.1 580.035 318.017 580.035 316.7C580.035 315.367 580.418 314.283 581.218 313.433C582.002 312.567 583.052 312.15 584.368 312.15ZM584.368 313.7C583.568 313.7 582.968 314 582.535 314.633C582.168 315.167 581.985 315.867 581.985 316.7C581.985 317.533 582.168 318.217 582.535 318.75C582.968 319.367 583.568 319.683 584.368 319.683C585.152 319.683 585.768 319.367 586.202 318.75C586.568 318.2 586.768 317.517 586.768 316.7C586.768 315.867 586.568 315.167 586.202 314.633C585.768 314 585.152 313.7 584.368 313.7ZM589.445 312.383H591.545L593.262 318.75L594.962 312.383H596.712L598.412 318.75L600.129 312.383H602.229L599.329 321H597.562L595.845 314.7L594.112 321H592.345L589.445 312.383Z" fill="white"/>
<circle cx="573.5" cy="371" r="7" fill="#F143E2"/>
<circle cx="594.5" cy="362" r="4" fill="#F143E2"/>
<circle cx="573.5" cy="259" r="4" fill="#F143E2"/>
<circle cx="605.5" cy="352" r="4" fill="#F143E2"/>
<circle cx="856.5" cy="370" r="10" fill="#F143E2"/>
<circle cx="926.5" cy="607" r="10" fill="#F143E2"/>
<circle cx="138.5" cy="572" r="16" fill="#F143E2"/>
<circle cx="392.5" cy="113" r="33.5" stroke="white" stroke-opacity="0.4"/>
<path d="M405.5 125.046V125.632C405.5 128.478 400.854 128.478 395.474 128.478H389.525C383.924 128.478 379.5 128.478 379.5 125.632V125.046C379.5 119.603 383.996 115.175 389.525 115.175H395.474C401.002 115.175 405.5 119.604 405.5 125.046Z" fill="url(#paint1_linear_276_12430)"/>
<path d="M400.836 105.508C400.836 110.2 396.963 114.016 392.201 114.016C387.44 114.016 383.566 110.198 383.566 105.508C383.566 100.817 387.44 97 392.201 97C396.963 97 400.836 100.816 400.836 105.508Z" fill="url(#paint2_linear_276_12430)"/>
<circle cx="403.5" cy="154" r="9" fill="#40187F"/>
<circle cx="392.5" cy="113" r="34" fill="black"/>
<circle cx="392.5" cy="113" r="33.5" stroke="white" stroke-opacity="0.3"/>
<path d="M405.5 125.046V125.632C405.5 128.478 400.854 128.478 395.474 128.478H389.525C383.924 128.478 379.5 128.478 379.5 125.632V125.046C379.5 119.603 383.996 115.175 389.525 115.175H395.474C401.002 115.175 405.5 119.604 405.5 125.046Z" fill="url(#paint3_linear_276_12430)"/>
<path d="M400.836 105.508C400.836 110.2 396.963 114.016 392.201 114.016C387.44 114.016 383.566 110.198 383.566 105.508C383.566 100.817 387.44 97 392.201 97C396.963 97 400.836 100.816 400.836 105.508Z" fill="url(#paint4_linear_276_12430)"/>
<circle cx="75.5" cy="289" r="5" fill="#40187F"/>
<circle cx="49.5" cy="316" r="34" fill="black"/>
<circle cx="49.5" cy="316" r="33.5" stroke="white" stroke-opacity="0.3"/>
<path d="M62.5 328.046V328.632C62.5 331.478 57.8543 331.478 52.4741 331.478H46.5251C40.9245 331.478 36.5 331.478 36.5 328.632V328.046C36.5 322.603 40.9963 318.175 46.5251 318.175H52.4741C58.0025 318.175 62.5 322.604 62.5 328.046Z" fill="url(#paint5_linear_276_12430)"/>
<path d="M57.8363 308.508C57.8363 313.2 53.9627 317.016 49.2014 317.016C44.4405 317.016 40.5664 313.198 40.5664 308.508C40.5664 303.817 44.4405 300 49.2014 300C53.9627 300 57.8363 303.816 57.8363 308.508Z" fill="url(#paint6_linear_276_12430)"/>
<circle cx="83.5" cy="88" r="34" fill="black"/>
<circle cx="83.5" cy="88" r="33.5" stroke="white" stroke-opacity="0.3"/>
<path d="M96.5 100.046V100.632C96.5 103.478 91.8543 103.478 86.4741 103.478H80.5251C74.9245 103.478 70.5 103.478 70.5 100.632V100.046C70.5 94.6025 74.9963 90.1748 80.5251 90.1748H86.4741C92.0025 90.1748 96.5 94.6038 96.5 100.046Z" fill="url(#paint7_linear_276_12430)"/>
<path d="M91.8363 80.5079C91.8363 85.1997 87.9627 89.0158 83.2014 89.0158C78.4405 89.0158 74.5664 85.1983 74.5664 80.5079C74.5664 75.8171 78.4405 72 83.2014 72C87.9627 72 91.8363 75.8162 91.8363 80.5079Z" fill="url(#paint8_linear_276_12430)"/>
<circle cx="513.5" cy="171" r="49" fill="black"/>
<circle cx="513.5" cy="171" r="48.2794" stroke="white" stroke-opacity="0.3" stroke-width="1.44118"/>
<path d="M532.236 188.361V189.206C532.236 193.307 525.541 193.307 517.787 193.307H509.214C501.142 193.307 494.766 193.307 494.766 189.206V188.361C494.766 180.516 501.246 174.135 509.214 174.135H517.787C525.755 174.135 532.236 180.518 532.236 188.361Z" fill="url(#paint9_linear_276_12430)"/>
<path d="M525.514 160.203C525.514 166.964 519.931 172.464 513.069 172.464C506.208 172.464 500.625 166.963 500.625 160.203C500.625 153.442 506.208 147.941 513.069 147.941C519.931 147.941 525.514 153.441 525.514 160.203Z" fill="url(#paint10_linear_276_12430)"/>
<circle cx="905.5" cy="247" r="49" fill="black"/>
<circle cx="905.5" cy="247" r="48.2794" stroke="white" stroke-opacity="0.3" stroke-width="1.44118"/>
<path d="M924.236 264.361V265.206C924.236 269.307 917.541 269.307 909.787 269.307H901.214C893.142 269.307 886.766 269.307 886.766 265.206V264.361C886.766 256.516 893.246 250.135 901.214 250.135H909.787C917.755 250.135 924.236 256.518 924.236 264.361Z" fill="url(#paint11_linear_276_12430)"/>
<path d="M917.514 236.203C917.514 242.964 911.931 248.464 905.069 248.464C898.208 248.464 892.625 242.963 892.625 236.203C892.625 229.442 898.208 223.941 905.069 223.941C911.931 223.941 917.514 229.441 917.514 236.203Z" fill="url(#paint12_linear_276_12430)"/>
<circle cx="285.5" cy="296" r="34" fill="black"/>
<circle cx="285.5" cy="296" r="33.5" stroke="white" stroke-opacity="0.3"/>
<path d="M298.5 308.046V308.632C298.5 311.478 293.854 311.478 288.474 311.478H282.525C276.924 311.478 272.5 311.478 272.5 308.632V308.046C272.5 302.603 276.996 298.175 282.525 298.175H288.474C294.002 298.175 298.5 302.604 298.5 308.046Z" fill="url(#paint13_linear_276_12430)"/>
<path d="M293.836 288.508C293.836 293.2 289.963 297.016 285.201 297.016C280.44 297.016 276.566 293.198 276.566 288.508C276.566 283.817 280.44 280 285.201 280C289.963 280 293.836 283.816 293.836 288.508Z" fill="url(#paint14_linear_276_12430)"/>
<circle cx="379.5" cy="628" r="34" fill="black"/>
<circle cx="379.5" cy="628" r="33.5" stroke="white" stroke-opacity="0.3"/>
<path d="M392.5 640.046V640.632C392.5 643.478 387.854 643.478 382.474 643.478H376.525C370.924 643.478 366.5 643.478 366.5 640.632V640.046C366.5 634.603 370.996 630.175 376.525 630.175H382.474C388.002 630.175 392.5 634.604 392.5 640.046Z" fill="url(#paint15_linear_276_12430)"/>
<path d="M387.836 620.508C387.836 625.2 383.963 629.016 379.201 629.016C374.44 629.016 370.566 625.198 370.566 620.508C370.566 615.817 374.44 612 379.201 612C383.963 612 387.836 615.816 387.836 620.508Z" fill="url(#paint16_linear_276_12430)"/>
<circle cx="766.5" cy="239" r="34" fill="black"/>
<circle cx="766.5" cy="239" r="33.5" stroke="white" stroke-opacity="0.3"/>
<path d="M779.5 251.046V251.632C779.5 254.478 774.854 254.478 769.474 254.478H763.525C757.924 254.478 753.5 254.478 753.5 251.632V251.046C753.5 245.603 757.996 241.175 763.525 241.175H769.474C775.002 241.175 779.5 245.604 779.5 251.046Z" fill="url(#paint17_linear_276_12430)"/>
<path d="M774.836 231.508C774.836 236.2 770.963 240.016 766.201 240.016C761.44 240.016 757.566 236.198 757.566 231.508C757.566 226.817 761.44 223 766.201 223C770.963 223 774.836 226.816 774.836 231.508Z" fill="url(#paint18_linear_276_12430)"/>
<circle cx="1101.5" cy="400" r="34" fill="black"/>
<circle cx="1101.5" cy="400" r="33.5" stroke="white" stroke-opacity="0.3"/>
<path d="M1114.5 412.046V412.632C1114.5 415.478 1109.85 415.478 1104.47 415.478H1098.53C1092.92 415.478 1088.5 415.478 1088.5 412.632V412.046C1088.5 406.603 1093 402.175 1098.53 402.175H1104.47C1110 402.175 1114.5 406.604 1114.5 412.046Z" fill="url(#paint19_linear_276_12430)"/>
<path d="M1109.84 392.508C1109.84 397.2 1105.96 401.016 1101.2 401.016C1096.44 401.016 1092.57 397.198 1092.57 392.508C1092.57 387.817 1096.44 384 1101.2 384C1105.96 384 1109.84 387.816 1109.84 392.508Z" fill="url(#paint20_linear_276_12430)"/>
<circle cx="880.5" cy="97" r="34" fill="black"/>
<circle cx="880.5" cy="97" r="33.5" stroke="white" stroke-opacity="0.3"/>
<path d="M893.5 109.046V109.632C893.5 112.478 888.854 112.478 883.474 112.478H877.525C871.924 112.478 867.5 112.478 867.5 109.632V109.046C867.5 103.603 871.996 99.1748 877.525 99.1748H883.474C889.002 99.1748 893.5 103.604 893.5 109.046Z" fill="url(#paint21_linear_276_12430)"/>
<path d="M888.836 89.5079C888.836 94.1997 884.963 98.0158 880.201 98.0158C875.44 98.0158 871.566 94.1983 871.566 89.5079C871.566 84.8171 875.44 81 880.201 81C884.963 81 888.836 84.8162 888.836 89.5079Z" fill="url(#paint22_linear_276_12430)"/>
<circle cx="88.5" cy="628" r="34" fill="black"/>
<circle cx="88.5" cy="628" r="33.5" stroke="white" stroke-opacity="0.3"/>
<path d="M101.5 640.046V640.632C101.5 643.478 96.8543 643.478 91.4741 643.478H85.5251C79.9245 643.478 75.5 643.478 75.5 640.632V640.046C75.5 634.603 79.9963 630.175 85.5251 630.175H91.4741C97.0025 630.175 101.5 634.604 101.5 640.046Z" fill="url(#paint23_linear_276_12430)"/>
<path d="M96.8363 620.508C96.8363 625.2 92.9627 629.016 88.2014 629.016C83.4405 629.016 79.5664 625.198 79.5664 620.508C79.5664 615.817 83.4405 612 88.2014 612C92.9627 612 96.8363 615.816 96.8363 620.508Z" fill="url(#paint24_linear_276_12430)"/>
<circle cx="217.5" cy="448" r="51" fill="black"/>
<circle cx="217.5" cy="448" r="50.25" stroke="white" stroke-opacity="0.3" stroke-width="1.5"/>
<path d="M237 466.069V466.948C237 471.216 230.031 471.216 221.961 471.216H213.038C204.637 471.216 198 471.216 198 466.948V466.069C198 457.903 204.744 451.262 213.038 451.262H221.961C230.254 451.262 237 457.905 237 466.069Z" fill="url(#paint25_linear_276_12430)"/>
<path d="M230.006 436.762C230.006 443.8 224.196 449.524 217.054 449.524C209.913 449.524 204.102 443.798 204.102 436.762C204.102 429.726 209.913 424 217.054 424C224.196 424 230.006 429.724 230.006 436.762Z" fill="url(#paint26_linear_276_12430)"/>
<circle cx="685.5" cy="439" r="51" fill="black"/>
<circle cx="685.5" cy="439" r="50.25" stroke="white" stroke-opacity="0.3" stroke-width="1.5"/>
<path d="M705 457.069V457.948C705 462.216 698.031 462.216 689.961 462.216H681.038C672.637 462.216 666 462.216 666 457.948V457.069C666 448.903 672.744 442.262 681.038 442.262H689.961C698.254 442.262 705 448.905 705 457.069Z" fill="url(#paint27_linear_276_12430)"/>
<path d="M698.006 427.762C698.006 434.8 692.196 440.524 685.054 440.524C677.913 440.524 672.102 434.798 672.102 427.762C672.102 420.726 677.913 415 685.054 415C692.196 415 698.006 420.724 698.006 427.762Z" fill="url(#paint28_linear_276_12430)"/>
<circle cx="641.5" cy="611" r="51" fill="black"/>
<circle cx="641.5" cy="611" r="50.25" stroke="white" stroke-opacity="0.3" stroke-width="1.5"/>
<path d="M661 629.07V629.949C661 634.217 654.031 634.217 645.961 634.217H637.038C628.637 634.217 622 634.217 622 629.949V629.07C622 620.904 628.744 614.262 637.038 614.262H645.961C654.254 614.262 661 620.906 661 629.07Z" fill="url(#paint29_linear_276_12430)"/>
<path d="M654.006 599.762C654.006 606.8 648.196 612.524 641.054 612.524C633.913 612.524 628.102 606.798 628.102 599.762C628.102 592.726 633.913 587 641.054 587C648.196 587 654.006 592.724 654.006 599.762Z" fill="url(#paint30_linear_276_12430)"/>
<circle cx="1067.5" cy="550" r="51" fill="black"/>
<circle cx="1067.5" cy="550" r="50.25" stroke="white" stroke-opacity="0.3" stroke-width="1.5"/>
<path d="M1087 568.069V568.948C1087 573.216 1080.03 573.216 1071.96 573.216H1063.04C1054.64 573.216 1048 573.216 1048 568.948V568.069C1048 559.903 1054.74 553.262 1063.04 553.262H1071.96C1080.25 553.262 1087 559.905 1087 568.069Z" fill="url(#paint31_linear_276_12430)"/>
<path d="M1080.01 538.762C1080.01 545.8 1074.2 551.524 1067.05 551.524C1059.91 551.524 1054.1 545.798 1054.1 538.762C1054.1 531.726 1059.91 526 1067.05 526C1074.2 526 1080.01 531.724 1080.01 538.762Z" fill="url(#paint32_linear_276_12430)"/>
<g opacity="0.2">
<circle cx="180.5" cy="164" r="49" fill="black"/>
<circle cx="180.5" cy="164" r="48.2794" stroke="white" stroke-opacity="0.3" stroke-width="1.44118"/>
<path d="M199.236 181.361V182.206C199.236 186.307 192.541 186.307 184.787 186.307H176.214C168.142 186.307 161.766 186.307 161.766 182.206V181.361C161.766 173.516 168.246 167.135 176.214 167.135H184.787C192.755 167.135 199.236 173.518 199.236 181.361Z" fill="url(#paint33_linear_276_12430)"/>
<path d="M192.514 153.203C192.514 159.964 186.931 165.464 180.069 165.464C173.208 165.464 167.625 159.963 167.625 153.203C167.625 146.442 173.208 140.941 180.069 140.941C186.931 140.941 192.514 146.441 192.514 153.203Z" fill="url(#paint34_linear_276_12430)"/>
</g>
<g opacity="0.2">
<circle cx="391.5" cy="399" r="49" fill="black"/>
<circle cx="391.5" cy="399" r="48.2794" stroke="white" stroke-opacity="0.3" stroke-width="1.44118"/>
<path d="M410.236 416.361V417.206C410.236 421.307 403.541 421.307 395.787 421.307H387.214C379.142 421.307 372.766 421.307 372.766 417.206V416.361C372.766 408.516 379.246 402.135 387.214 402.135H395.787C403.755 402.135 410.236 408.518 410.236 416.361Z" fill="url(#paint35_linear_276_12430)"/>
<path d="M403.514 388.203C403.514 394.964 397.931 400.464 391.069 400.464C384.208 400.464 378.625 394.963 378.625 388.203C378.625 381.442 384.208 375.941 391.069 375.941C397.931 375.941 403.514 381.441 403.514 388.203Z" fill="url(#paint36_linear_276_12430)"/>
</g>
<g opacity="0.2">
<circle cx="502.5" cy="490" r="33" fill="black"/>
<circle cx="502.5" cy="490" r="32.5147" stroke="white" stroke-opacity="0.3" stroke-width="0.970588"/>
<path d="M515.118 501.693V502.261C515.118 505.023 510.609 505.023 505.387 505.023H499.613C494.177 505.023 489.883 505.023 489.883 502.261V501.693C489.883 496.409 494.247 492.111 499.613 492.111H505.387C510.753 492.111 515.118 496.41 515.118 501.693Z" fill="url(#paint37_linear_276_12430)"/>
<path d="M510.59 482.728C510.59 487.282 506.83 490.986 502.209 490.986C497.588 490.986 493.828 487.281 493.828 482.728C493.828 478.175 497.588 474.471 502.209 474.471C506.83 474.471 510.59 478.175 510.59 482.728Z" fill="url(#paint38_linear_276_12430)"/>
</g>
<g opacity="0.2">
<circle cx="800.5" cy="362" r="33" fill="black"/>
<circle cx="800.5" cy="362" r="32.5147" stroke="white" stroke-opacity="0.3" stroke-width="0.970588"/>
<path d="M813.118 373.693V374.261C813.118 377.023 808.609 377.023 803.387 377.023H797.613C792.177 377.023 787.883 377.023 787.883 374.261V373.693C787.883 368.409 792.247 364.111 797.613 364.111H803.387C808.753 364.111 813.118 368.41 813.118 373.693Z" fill="url(#paint39_linear_276_12430)"/>
<path d="M808.59 354.728C808.59 359.282 804.83 362.986 800.209 362.986C795.588 362.986 791.828 359.281 791.828 354.728C791.828 350.175 795.588 346.471 800.209 346.471C804.83 346.471 808.59 350.175 808.59 354.728Z" fill="url(#paint40_linear_276_12430)"/>
</g>
<g opacity="0.2">
<circle cx="872.5" cy="617" r="33" fill="black"/>
<circle cx="872.5" cy="617" r="32.5147" stroke="white" stroke-opacity="0.3" stroke-width="0.970588"/>
<path d="M885.118 628.692V629.261C885.118 632.023 880.609 632.023 875.387 632.023H869.613C864.177 632.023 859.883 632.023 859.883 629.261V628.692C859.883 623.408 864.247 619.111 869.613 619.111H875.387C880.753 619.111 885.118 623.41 885.118 628.692Z" fill="url(#paint41_linear_276_12430)"/>
<path d="M880.59 609.728C880.59 614.282 876.83 617.986 872.209 617.986C867.588 617.986 863.828 614.281 863.828 609.728C863.828 605.175 867.588 601.471 872.209 601.471C876.83 601.471 880.59 605.175 880.59 609.728Z" fill="url(#paint42_linear_276_12430)"/>
</g>
<g opacity="0.2">
<circle cx="667.5" cy="172" r="33" fill="black"/>
<circle cx="667.5" cy="172" r="32.5147" stroke="white" stroke-opacity="0.3" stroke-width="0.970588"/>
<path d="M680.118 183.693V184.261C680.118 187.023 675.609 187.023 670.387 187.023H664.613C659.177 187.023 654.883 187.023 654.883 184.261V183.693C654.883 178.409 659.247 174.111 664.613 174.111H670.387C675.753 174.111 680.118 178.41 680.118 183.693Z" fill="url(#paint43_linear_276_12430)"/>
<path d="M675.59 164.728C675.59 169.282 671.83 172.986 667.209 172.986C662.588 172.986 658.828 169.281 658.828 164.728C658.828 160.175 662.588 156.471 667.209 156.471C671.83 156.471 675.59 160.175 675.59 164.728Z" fill="url(#paint44_linear_276_12430)"/>
</g>
<g opacity="0.2">
<circle cx="1080.5" cy="263" r="33" fill="black"/>
<circle cx="1080.5" cy="263" r="32.5147" stroke="white" stroke-opacity="0.3" stroke-width="0.970588"/>
<path d="M1093.12 274.693V275.261C1093.12 278.023 1088.61 278.023 1083.39 278.023H1077.61C1072.18 278.023 1067.88 278.023 1067.88 275.261V274.693C1067.88 269.409 1072.25 265.111 1077.61 265.111H1083.39C1088.75 265.111 1093.12 269.41 1093.12 274.693Z" fill="url(#paint45_linear_276_12430)"/>
<path d="M1088.59 255.728C1088.59 260.282 1084.83 263.986 1080.21 263.986C1075.59 263.986 1071.83 260.281 1071.83 255.728C1071.83 251.175 1075.59 247.471 1080.21 247.471C1084.83 247.471 1088.59 251.175 1088.59 255.728Z" fill="url(#paint46_linear_276_12430)"/>
</g>
<circle cx="418.5" cy="246" r="34" fill="black"/>
<circle cx="418.5" cy="246" r="33.5" stroke="white" stroke-opacity="0.3"/>
<path d="M431.5 258.046V258.632C431.5 261.478 426.854 261.478 421.474 261.478H415.525C409.924 261.478 405.5 261.478 405.5 258.632V258.046C405.5 252.603 409.996 248.175 415.525 248.175H421.474C427.002 248.175 431.5 252.604 431.5 258.046Z" fill="url(#paint47_linear_276_12430)"/>
<path d="M426.836 238.508C426.836 243.2 422.963 247.016 418.201 247.016C413.44 247.016 409.566 243.198 409.566 238.508C409.566 233.817 413.44 230 418.201 230C422.963 230 426.836 233.816 426.836 238.508Z" fill="url(#paint48_linear_276_12430)"/>
<circle cx="625.5" cy="58" r="34" fill="black"/>
<circle cx="625.5" cy="58" r="33.5" stroke="white" stroke-opacity="0.3"/>
<path d="M638.5 70.0464V70.6324C638.5 73.4779 633.854 73.4779 628.474 73.4779H622.525C616.924 73.4779 612.5 73.4779 612.5 70.6324V70.0464C612.5 64.6025 616.996 60.1748 622.525 60.1748H628.474C634.002 60.1748 638.5 64.6038 638.5 70.0464Z" fill="url(#paint49_linear_276_12430)"/>
<path d="M633.836 50.5079C633.836 55.1997 629.963 59.0158 625.201 59.0158C620.44 59.0158 616.566 55.1983 616.566 50.5079C616.566 45.8171 620.44 42 625.201 42C629.963 42 633.836 45.8162 633.836 50.5079Z" fill="url(#paint50_linear_276_12430)"/>
<defs>
<linearGradient id="paint0_linear_276_12430" x1="517" y1="265.5" x2="607.5" y2="374" gradientUnits="userSpaceOnUse">
<stop stop-color="#F143E2"/>
<stop offset="1" stop-color="#40187F"/>
</linearGradient>
<linearGradient id="paint1_linear_276_12430" x1="386" y1="116.02" x2="390.676" y2="133.445" gradientUnits="userSpaceOnUse">
<stop stop-color="#F143E2"/>
<stop offset="1" stop-color="#40187F"/>
</linearGradient>
<linearGradient id="paint2_linear_276_12430" x1="387.884" y1="98.0811" x2="397.628" y2="116.938" gradientUnits="userSpaceOnUse">
<stop stop-color="#F143E2"/>
<stop offset="1" stop-color="#40187F"/>
</linearGradient>
<linearGradient id="paint3_linear_276_12430" x1="386" y1="116.02" x2="390.676" y2="133.445" gradientUnits="userSpaceOnUse">
<stop stop-color="#F143E2"/>
<stop offset="1" stop-color="#40187F"/>
</linearGradient>
<linearGradient id="paint4_linear_276_12430" x1="387.884" y1="98.0811" x2="397.628" y2="116.938" gradientUnits="userSpaceOnUse">
<stop stop-color="#F143E2"/>
<stop offset="1" stop-color="#40187F"/>
</linearGradient>
<linearGradient id="paint5_linear_276_12430" x1="43" y1="319.02" x2="47.6755" y2="336.445" gradientUnits="userSpaceOnUse">
<stop stop-color="#F143E2"/>
<stop offset="1" stop-color="#40187F"/>
</linearGradient>
<linearGradient id="paint6_linear_276_12430" x1="44.8839" y1="301.081" x2="54.6278" y2="319.938" gradientUnits="userSpaceOnUse">
<stop stop-color="#F143E2"/>
<stop offset="1" stop-color="#40187F"/>
</linearGradient>
<linearGradient id="paint7_linear_276_12430" x1="77" y1="91.02" x2="81.6755" y2="108.445" gradientUnits="userSpaceOnUse">
<stop stop-color="#F143E2"/>
<stop offset="1" stop-color="#40187F"/>
</linearGradient>
<linearGradient id="paint8_linear_276_12430" x1="78.8839" y1="73.0811" x2="88.6278" y2="91.9385" gradientUnits="userSpaceOnUse">
<stop stop-color="#F143E2"/>
<stop offset="1" stop-color="#40187F"/>
</linearGradient>
<linearGradient id="paint9_linear_276_12430" x1="504.133" y1="175.353" x2="510.872" y2="200.465" gradientUnits="userSpaceOnUse">
<stop stop-color="#F143E2"/>
<stop offset="1" stop-color="#40187F"/>
</linearGradient>
<linearGradient id="paint10_linear_276_12430" x1="506.847" y1="149.5" x2="520.89" y2="176.676" gradientUnits="userSpaceOnUse">
<stop stop-color="#F143E2"/>
<stop offset="1" stop-color="#40187F"/>
</linearGradient>
<linearGradient id="paint11_linear_276_12430" x1="896.133" y1="251.353" x2="902.872" y2="276.465" gradientUnits="userSpaceOnUse">
<stop stop-color="#F143E2"/>
<stop offset="1" stop-color="#40187F"/>
</linearGradient>
<linearGradient id="paint12_linear_276_12430" x1="898.847" y1="225.5" x2="912.89" y2="252.676" gradientUnits="userSpaceOnUse">
<stop stop-color="#F143E2"/>
<stop offset="1" stop-color="#40187F"/>
</linearGradient>
<linearGradient id="paint13_linear_276_12430" x1="279" y1="299.02" x2="283.676" y2="316.445" gradientUnits="userSpaceOnUse">
<stop stop-color="#F143E2"/>
<stop offset="1" stop-color="#40187F"/>
</linearGradient>
<linearGradient id="paint14_linear_276_12430" x1="280.884" y1="281.081" x2="290.628" y2="299.938" gradientUnits="userSpaceOnUse">
<stop stop-color="#F143E2"/>
<stop offset="1" stop-color="#40187F"/>
</linearGradient>
<linearGradient id="paint15_linear_276_12430" x1="373" y1="631.02" x2="377.676" y2="648.445" gradientUnits="userSpaceOnUse">
<stop stop-color="#F143E2"/>
<stop offset="1" stop-color="#40187F"/>
</linearGradient>
<linearGradient id="paint16_linear_276_12430" x1="374.884" y1="613.081" x2="384.628" y2="631.938" gradientUnits="userSpaceOnUse">
<stop stop-color="#F143E2"/>
<stop offset="1" stop-color="#40187F"/>
</linearGradient>
<linearGradient id="paint17_linear_276_12430" x1="760" y1="242.02" x2="764.676" y2="259.445" gradientUnits="userSpaceOnUse">
<stop stop-color="#F143E2"/>
<stop offset="1" stop-color="#40187F"/>
</linearGradient>
<linearGradient id="paint18_linear_276_12430" x1="761.884" y1="224.081" x2="771.628" y2="242.938" gradientUnits="userSpaceOnUse">
<stop stop-color="#F143E2"/>
<stop offset="1" stop-color="#40187F"/>
</linearGradient>
<linearGradient id="paint19_linear_276_12430" x1="1095" y1="403.02" x2="1099.68" y2="420.445" gradientUnits="userSpaceOnUse">
<stop stop-color="#F143E2"/>
<stop offset="1" stop-color="#40187F"/>
</linearGradient>
<linearGradient id="paint20_linear_276_12430" x1="1096.88" y1="385.081" x2="1106.63" y2="403.938" gradientUnits="userSpaceOnUse">
<stop stop-color="#F143E2"/>
<stop offset="1" stop-color="#40187F"/>
</linearGradient>
<linearGradient id="paint21_linear_276_12430" x1="874" y1="100.02" x2="878.676" y2="117.445" gradientUnits="userSpaceOnUse">
<stop stop-color="#F143E2"/>
<stop offset="1" stop-color="#40187F"/>
</linearGradient>
<linearGradient id="paint22_linear_276_12430" x1="875.884" y1="82.0811" x2="885.628" y2="100.938" gradientUnits="userSpaceOnUse">
<stop stop-color="#F143E2"/>
<stop offset="1" stop-color="#40187F"/>
</linearGradient>
<linearGradient id="paint23_linear_276_12430" x1="82" y1="631.02" x2="86.6755" y2="648.445" gradientUnits="userSpaceOnUse">
<stop stop-color="#F143E2"/>
<stop offset="1" stop-color="#40187F"/>
</linearGradient>
<linearGradient id="paint24_linear_276_12430" x1="83.8839" y1="613.081" x2="93.6278" y2="631.938" gradientUnits="userSpaceOnUse">
<stop stop-color="#F143E2"/>
<stop offset="1" stop-color="#40187F"/>
</linearGradient>
<linearGradient id="paint25_linear_276_12430" x1="207.75" y1="452.53" x2="214.763" y2="478.666" gradientUnits="userSpaceOnUse">
<stop stop-color="#F143E2"/>
<stop offset="1" stop-color="#40187F"/>
</linearGradient>
<linearGradient id="paint26_linear_276_12430" x1="210.578" y1="425.622" x2="225.194" y2="453.908" gradientUnits="userSpaceOnUse">
<stop stop-color="#F143E2"/>
<stop offset="1" stop-color="#40187F"/>
</linearGradient>
<linearGradient id="paint27_linear_276_12430" x1="675.75" y1="443.53" x2="682.763" y2="469.666" gradientUnits="userSpaceOnUse">
<stop stop-color="#F143E2"/>
<stop offset="1" stop-color="#40187F"/>
</linearGradient>
<linearGradient id="paint28_linear_276_12430" x1="678.578" y1="416.622" x2="693.194" y2="444.908" gradientUnits="userSpaceOnUse">
<stop stop-color="#F143E2"/>
<stop offset="1" stop-color="#40187F"/>
</linearGradient>
<linearGradient id="paint29_linear_276_12430" x1="631.75" y1="615.53" x2="638.763" y2="641.667" gradientUnits="userSpaceOnUse">
<stop stop-color="#F143E2"/>
<stop offset="1" stop-color="#40187F"/>
</linearGradient>
<linearGradient id="paint30_linear_276_12430" x1="634.578" y1="588.622" x2="649.194" y2="616.908" gradientUnits="userSpaceOnUse">
<stop stop-color="#F143E2"/>
<stop offset="1" stop-color="#40187F"/>
</linearGradient>
<linearGradient id="paint31_linear_276_12430" x1="1057.75" y1="554.53" x2="1064.76" y2="580.666" gradientUnits="userSpaceOnUse">
<stop stop-color="#F143E2"/>
<stop offset="1" stop-color="#40187F"/>
</linearGradient>
<linearGradient id="paint32_linear_276_12430" x1="1060.58" y1="527.622" x2="1075.19" y2="555.908" gradientUnits="userSpaceOnUse">
<stop stop-color="#F143E2"/>
<stop offset="1" stop-color="#40187F"/>
</linearGradient>
<linearGradient id="paint33_linear_276_12430" x1="171.133" y1="168.353" x2="177.872" y2="193.465" gradientUnits="userSpaceOnUse">
<stop stop-color="#F143E2"/>
<stop offset="1" stop-color="#40187F"/>
</linearGradient>
<linearGradient id="paint34_linear_276_12430" x1="173.847" y1="142.5" x2="187.89" y2="169.676" gradientUnits="userSpaceOnUse">
<stop stop-color="#F143E2"/>
<stop offset="1" stop-color="#40187F"/>
</linearGradient>
<linearGradient id="paint35_linear_276_12430" x1="382.133" y1="403.353" x2="388.872" y2="428.465" gradientUnits="userSpaceOnUse">
<stop stop-color="#F143E2"/>
<stop offset="1" stop-color="#40187F"/>
</linearGradient>
<linearGradient id="paint36_linear_276_12430" x1="384.847" y1="377.5" x2="398.89" y2="404.676" gradientUnits="userSpaceOnUse">
<stop stop-color="#F143E2"/>
<stop offset="1" stop-color="#40187F"/>
</linearGradient>
<linearGradient id="paint37_linear_276_12430" x1="496.192" y1="492.932" x2="500.73" y2="509.844" gradientUnits="userSpaceOnUse">
<stop stop-color="#F143E2"/>
<stop offset="1" stop-color="#40187F"/>
</linearGradient>
<linearGradient id="paint38_linear_276_12430" x1="498.019" y1="475.52" x2="507.476" y2="493.823" gradientUnits="userSpaceOnUse">
<stop stop-color="#F143E2"/>
<stop offset="1" stop-color="#40187F"/>
</linearGradient>
<linearGradient id="paint39_linear_276_12430" x1="794.192" y1="364.932" x2="798.73" y2="381.844" gradientUnits="userSpaceOnUse">
<stop stop-color="#F143E2"/>
<stop offset="1" stop-color="#40187F"/>
</linearGradient>
<linearGradient id="paint40_linear_276_12430" x1="796.019" y1="347.52" x2="805.476" y2="365.823" gradientUnits="userSpaceOnUse">
<stop stop-color="#F143E2"/>
<stop offset="1" stop-color="#40187F"/>
</linearGradient>
<linearGradient id="paint41_linear_276_12430" x1="866.192" y1="619.931" x2="870.73" y2="636.843" gradientUnits="userSpaceOnUse">
<stop stop-color="#F143E2"/>
<stop offset="1" stop-color="#40187F"/>
</linearGradient>
<linearGradient id="paint42_linear_276_12430" x1="868.019" y1="602.52" x2="877.476" y2="620.823" gradientUnits="userSpaceOnUse">
<stop stop-color="#F143E2"/>
<stop offset="1" stop-color="#40187F"/>
</linearGradient>
<linearGradient id="paint43_linear_276_12430" x1="661.192" y1="174.932" x2="665.73" y2="191.844" gradientUnits="userSpaceOnUse">
<stop stop-color="#F143E2"/>
<stop offset="1" stop-color="#40187F"/>
</linearGradient>
<linearGradient id="paint44_linear_276_12430" x1="663.019" y1="157.52" x2="672.476" y2="175.823" gradientUnits="userSpaceOnUse">
<stop stop-color="#F143E2"/>
<stop offset="1" stop-color="#40187F"/>
</linearGradient>
<linearGradient id="paint45_linear_276_12430" x1="1074.19" y1="265.932" x2="1078.73" y2="282.844" gradientUnits="userSpaceOnUse">
<stop stop-color="#F143E2"/>
<stop offset="1" stop-color="#40187F"/>
</linearGradient>
<linearGradient id="paint46_linear_276_12430" x1="1076.02" y1="248.52" x2="1085.48" y2="266.823" gradientUnits="userSpaceOnUse">
<stop stop-color="#F143E2"/>
<stop offset="1" stop-color="#40187F"/>
</linearGradient>
<linearGradient id="paint47_linear_276_12430" x1="412" y1="249.02" x2="416.676" y2="266.445" gradientUnits="userSpaceOnUse">
<stop stop-color="#F143E2"/>
<stop offset="1" stop-color="#40187F"/>
</linearGradient>
<linearGradient id="paint48_linear_276_12430" x1="413.884" y1="231.081" x2="423.628" y2="249.938" gradientUnits="userSpaceOnUse">
<stop stop-color="#F143E2"/>
<stop offset="1" stop-color="#40187F"/>
</linearGradient>
<linearGradient id="paint49_linear_276_12430" x1="619" y1="61.02" x2="623.676" y2="78.4446" gradientUnits="userSpaceOnUse">
<stop stop-color="#F143E2"/>
<stop offset="1" stop-color="#40187F"/>
</linearGradient>
<linearGradient id="paint50_linear_276_12430" x1="620.884" y1="43.0811" x2="630.628" y2="61.9385" gradientUnits="userSpaceOnUse">
<stop stop-color="#F143E2"/>
<stop offset="1" stop-color="#40187F"/>
</linearGradient>
</defs>
</svg>
