<svg width="37" height="36" viewBox="0 0 37 36" fill="none" xmlns="http://www.w3.org/2000/svg">
<path d="M10.5343 34.9999L10.9923 35.9999H7.78608L8.70211 35L10.5343 34.9999Z" fill="white"/>
<path d="M13.9574 30.8753L9.5008 35.7755L6.85755 33.3715L11.3142 28.4713L13.9574 30.8753Z" fill="white"/>
<path d="M0.548814 21.9389L6.45026 15.6711L17.9341 26.4837L12.0326 32.7515L0.548814 21.9389Z" fill="white"/>
<path d="M1.7274 11.5269L10.6369 2.06429L17.2888 8.32731L8.37923 17.7899L1.7274 11.5269Z" fill="white"/>
<path d="M26.0762 0L26.7371 0.577392L18.5488 9.96345L27.4134 17.6455C27.4831 17.6933 27.551 17.7454 27.6164 17.802C28.5735 18.6314 28.6731 20.0775 27.8392 21.0296L20.434 29.4829L25.9726 35.9999H35.7883L36.0307 0H26.0762Z" fill="url(#paint0_linear_597_11155)"/>
<path d="M16.2729 27.2828L7.41147 19.6036C7.34814 19.5589 7.28621 19.5107 7.2264 19.459C6.27076 18.6307 6.16978 17.1874 7.0005 16.2349L15.4485 6.55084L9.12782 2.78386e-05H0V35.9999H8.71509L16.2729 27.2828Z" fill="url(#paint1_linear_597_11155)"/>
<path d="M27.7749 17.804C27.7112 17.7491 27.6454 17.6984 27.5775 17.652L18.7076 9.96538L27.4013 0H21.3247L7.1594 16.2372C6.32832 17.1893 6.42965 18.6329 7.38494 19.4609C7.4444 19.5129 7.50633 19.5608 7.56966 19.6051L16.4336 27.2868L8.87891 36H14.9653L27.858 21.1913C28.7689 20.1512 28.732 18.6329 27.7749 17.804ZM19.4493 23.8432L12.1322 17.5024L15.6986 13.4146L23.0231 19.7624L19.4493 23.8432Z" fill="white"/>
<defs>
<linearGradient id="paint0_linear_597_11155" x1="15.8808" y1="12.0077" x2="22.6044" y2="31.1642" gradientUnits="userSpaceOnUse">
<stop stop-color="#FB36F4"/>
<stop offset="1" stop-color="#9D00C6"/>
</linearGradient>
<linearGradient id="paint1_linear_597_11155" x1="6.85167" y1="19.6148" x2="20.0001" y2="29.1525" gradientUnits="userSpaceOnUse">
<stop stop-color="#FB36F4"/>
<stop offset="0.96" stop-color="#9D00C6"/>
</linearGradient>
</defs>
</svg>
