<svg width="152" height="30" viewBox="0 0 152 30" fill="none" xmlns="http://www.w3.org/2000/svg">
<g clip-path="url(#clip0_78_40165)">
<mask id="mask0_78_40165" style="mask-type:luminance" maskUnits="userSpaceOnUse" x="0" y="0" width="50" height="30">
<path d="M49.6849 0.515396H0.0234375V29.4846H49.6849V0.515396Z" fill="white"/>
</mask>
<g mask="url(#mask0_78_40165)">
<path fill-rule="evenodd" clip-rule="evenodd" d="M20.4552 1.39139C21.5263 2.05565 22.2456 3.10848 28.8205 13.6363C35.6985 24.6492 36.014 25.2087 36.014 26.3921C36.014 27.4653 35.8994 27.7433 35.1523 28.4828C34.401 29.2263 34.1273 29.3357 33.0175 29.3357C32.0233 29.3357 31.5763 29.1957 30.9784 28.6978C30.5571 28.3471 28.591 25.4402 26.6095 22.2383C20.701 12.6911 17.7194 7.97428 17.6464 8.05882C16.9788 8.83345 15.2307 12.1653 15.2307 12.6627C15.2307 13.0761 16.4937 15.4256 18.5183 18.7783C20.3265 21.7724 21.9835 24.6432 22.2007 25.1577C23.0467 27.1621 21.5818 29.3357 19.3843 29.3357C18.7628 29.3357 17.9713 29.152 17.6254 28.9278C17.2794 28.7033 15.7369 26.4456 14.1977 23.9107C12.6584 21.3756 11.3042 19.3016 11.1882 19.3016C11.0721 19.3016 9.78017 21.3054 8.31749 23.7542C6.8548 26.203 5.42127 28.4178 5.13208 28.6755C4.84288 28.9333 4.1071 29.1997 3.49729 29.2679C1.51629 29.4889 0.0234375 28.2134 0.0234375 26.2994C0.0234375 25.3674 0.0340842 25.3478 7.56271 12.5285C10.6822 7.21671 13.6066 2.4974 14.0613 2.0411C15.7581 0.338054 18.3348 0.0764158 20.4552 1.39139ZM34.4938 1.39364C35.2377 2.14872 49.0325 24.1174 49.4578 25.2242C50.0714 26.8219 49.4207 28.3082 47.7589 29.1044C46.8599 29.5351 46.5382 29.5737 45.7026 29.3509C45.1577 29.2057 44.5283 28.8861 44.3037 28.6406C44.0793 28.395 40.5836 22.8915 36.5354 16.4105C28.6332 3.75869 28.6309 3.75392 29.5542 1.98666C30.4251 0.319242 33.1171 -0.00360558 34.4938 1.39364Z" fill="#236DFD"/>
</g>
<path d="M64.2907 11.9021L70.281 25.1452H73.511L79.5012 11.9021V25.1452H83.4653V4.94289H78.4442L71.896 19.2725L65.3478 4.94289H60.3267V25.1452H64.2907V11.9021Z" fill="#FFFFFF"/>
<path d="M104.068 18.6558C104.068 14.1044 99.7225 13.1061 95.3472 12.8124C91.8529 12.6069 89.68 11.9609 89.68 10.7276C89.68 9.49429 91.3831 8.64273 94.9655 8.64273C97.0503 8.64273 100.192 9.11256 101.484 9.43556L102.307 5.73572C100.428 5.23653 97.6083 4.8548 94.9655 4.8548C90.4434 4.8548 85.6866 6.17618 85.6866 10.8744C85.6866 15.3671 90.6196 16.3361 95.1123 16.6004C99.2229 16.8646 100.075 17.6868 100.075 18.9201C100.075 21.0636 97.4614 21.4747 93.879 21.4747C91.1188 21.4747 88.0943 20.8874 86.5381 20.447L85.481 24.0294C87.9475 24.8222 90.6784 25.2627 94.0846 25.2627C98.7829 25.2627 104.068 23.8825 104.068 18.6558Z" fill="#FFFFFF"/>
<path d="M118.508 25.1452H122.002V10.5807L118.508 10.4046L118.361 11.1974C117.04 10.6688 115.278 10.1697 113.692 10.1697C108.642 10.1697 105.559 13.1941 105.559 17.7162C105.559 22.2382 108.73 25.2627 113.751 25.2627C115.396 25.2627 117.04 24.8516 118.361 24.323L118.508 25.1452ZM114.045 21.4747C109.758 21.4747 109.552 18.7733 109.552 17.7162C109.552 16.6591 109.758 13.9576 114.045 13.9576C115.307 13.9576 116.922 14.3393 118.039 14.7798V20.7406C117.011 21.1223 115.631 21.4747 114.045 21.4747Z" fill="#FFFFFF"/>
<path d="M136.187 10.4046H130.285V10.0816C130.285 9.02447 130.638 8.52529 132.957 8.52529C134.66 8.52529 136.158 8.81893 136.158 8.81893L136.687 5.14845C136.687 5.14845 134.749 4.73735 132.781 4.73735C129.845 4.73735 126.291 5.55954 126.291 10.0816V10.4046H124.148L123.825 14.1632H126.291V25.1452H130.285V14.1632H135.864L136.187 10.4046Z" fill="#FFFFFF"/>
<path d="M151.976 17.1877C151.976 12.6069 148.599 10.1697 144.841 10.1697C139.79 10.1697 136.442 13.1941 136.442 17.7162C136.442 22.2382 140.054 25.2627 145.105 25.2627C147.424 25.2627 149.539 24.8516 151.036 24.1762L149.92 20.6525C148.716 21.0636 147.131 21.4747 145.163 21.4747C142.55 21.4747 141.375 20.4763 140.847 19.4487L151.858 19.5074C151.858 19.5074 151.976 18.3328 151.976 17.1877ZM144.899 13.9576C146.72 13.9576 147.952 14.7211 147.952 16.1599L140.7 16.2186C141.111 15.1322 142.198 13.9576 144.899 13.9576Z" fill="#FFFFFF"/>
</g>
<defs>
<clipPath id="clip0_78_40165">
<rect width="151.953" height="28.9692" fill="white" transform="translate(0.0234375 0.515396)"/>
</clipPath>
</defs>
</svg>
