<svg width="80" height="80" viewBox="0 0 80 80" fill="none" xmlns="http://www.w3.org/2000/svg">
<path d="M39.7906 21.4395C44.1035 21.4395 47.5539 22.4098 50.0338 24.4044C52.0731 26.0187 53.4093 28.2691 54.0688 31.1291C54.3668 32.4213 53.3092 33.5688 51.9831 33.5688C50.8877 33.5688 49.9753 32.7716 49.6502 31.7257C49.0659 29.846 48.1336 28.402 46.853 27.3694C45.1279 25.9678 42.7018 25.3209 39.575 25.3209C36.7176 25.3209 34.5073 25.7521 32.8899 26.7225C31.0569 27.8006 30.1404 29.4179 30.1404 31.6281C30.1404 33.5688 31.2186 35.1322 33.429 36.3182C34.3994 36.8572 36.7715 37.6659 40.4915 38.744C45.5592 40.2535 48.9017 41.4934 50.519 42.4637C53.6998 44.4044 55.3172 47.0998 55.3172 50.6039C55.3172 53.9462 53.9694 56.6416 51.2738 58.5823C48.5782 60.4691 44.9661 61.4395 40.3836 61.4395C35.855 61.4395 32.2969 60.4691 29.7091 58.5284C27.2149 56.6133 25.6406 53.8887 24.9862 50.3243C24.7537 49.0579 25.788 47.9624 27.0756 47.9624C28.2071 47.9624 29.1369 48.8187 29.3983 49.9196C29.9608 52.2885 31.0258 54.1069 32.5664 55.3478C34.3455 56.7494 36.9333 57.5041 40.3836 57.5041C43.5105 57.5041 46.0983 56.9111 48.0391 55.7252C49.9799 54.5392 50.9503 52.9219 50.9503 50.8734C50.9503 48.4475 49.6565 46.5607 47.1226 45.213C46.0444 44.5661 43.2949 43.6497 38.9819 42.4098C34.3455 41.0082 31.3804 39.93 30.1404 39.2831C27.1753 37.5581 25.7196 35.0783 25.7196 31.8438C25.7196 28.5014 27.1213 25.8599 29.9787 24.0271C32.5125 22.302 35.8011 21.4395 39.7906 21.4395Z" fill="white"/>
<path d="M40 14V23" stroke="white" stroke-width="4" stroke-linecap="round"/>
<path d="M40 60V69" stroke="white" stroke-width="4" stroke-linecap="round"/>
<path d="M9.37417 17.5C4.7388 23.7988 2 31.5796 2 40C2 60.9868 19.0132 78 40 78C45.1155 78 49.9949 76.9892 54.4494 75.1564C54.8527 74.9905 54.8496 74.4275 54.4486 74.2561L48 71.5M65.1353 68.5C73.0243 61.537 78 51.3496 78 40C78 19.0132 60.9868 2 40 2C32.1814 2 24.9143 4.36128 18.873 8.40962C18.5248 8.64294 18.6139 9.17084 19.0168 9.28625L25 11" stroke="white" stroke-width="4" stroke-linecap="round"/>
</svg>
