<svg width="80" height="80" viewBox="0 0 80 80" fill="none" xmlns="http://www.w3.org/2000/svg">
<path d="M19.5374 72.9374C31.1605 74.4871 41.8856 74.0614 43.3808 73.9914C43.5034 73.9857 43.6281 73.9913 43.75 74.0059C92.6306 79.8733 75.3857 33.0855 59.1646 26.5452C58.3596 26.2206 58.0762 25.0928 58.6909 24.48C73.3195 9.899 53.0359 3.18724 50.1566 10.4983C50.0651 10.7305 49.3807 10.7711 49.2957 10.5364C46.5449 2.93569 38.5291 1.72319 35.4283 11.5973C35.3276 11.9182 34.8944 12.0042 34.6677 11.7558C23.7888 -0.163533 13.2755 16.3777 25.3277 24.9713C25.9801 25.4365 25.9874 26.4554 25.3169 26.8943C3.88031 40.9267 4.22797 70.8961 19.5374 72.9374Z" stroke="white" stroke-width="4"/>
<path d="M30.7776 44.9063L30.7779 44.9059L30.7776 44.9063ZM31.2104 44.2876L45.8258 23.3942V39.1861C45.8258 40.7521 47.0953 42.0216 48.6613 42.0216H54.9267L39.434 64.8447V47.1231C39.434 45.5571 38.1645 44.2876 36.5985 44.2876H31.2104Z" stroke="white" stroke-width="4"/>
</svg>
