<svg width="80" height="80" viewBox="0 0 80 80" fill="none" xmlns="http://www.w3.org/2000/svg">
<path d="M37.9583 4.83346C37.9841 4.81857 38.0159 4.81857 38.0417 4.83346L68.4343 22.3806C68.4601 22.3955 68.476 22.423 68.476 22.4528V57.5472C68.476 57.577 68.4601 57.6045 68.4343 57.6194L38.0417 75.1665C38.0159 75.1814 37.9841 75.1814 37.9583 75.1665L7.56571 57.6194C7.53993 57.6045 7.52405 57.577 7.52405 57.5472V22.4528C7.52405 22.423 7.53993 22.3955 7.56571 22.3806L6.56571 20.6486L7.56571 22.3806L37.9583 4.83346Z" stroke="white" stroke-width="4"/>
<path d="M52.8135 28.425L52.8135 52.4998" stroke="white" stroke-width="4" stroke-linecap="round"/>
<path d="M23.1841 41.3889L23.1841 52.5003" stroke="white" stroke-width="4" stroke-linecap="round"/>
<path d="M37.9946 33.9795L37.9946 52.4986" stroke="white" stroke-width="4" stroke-linecap="round"/>
<path d="M22.3754 33.7516L49.0273 21.9072C49.5487 21.6754 49.5124 20.9236 48.9712 20.7431L41.125 18.1266" stroke="white" stroke-width="4" stroke-linecap="round"/>
</svg>
